# xmcd
#
# Track frame offsets: 
#        150
#        17481
#        30664
#        47706
#        61284
#        71990
#        87235
#        112751
#        129589
#        143267
#        161407
#        173932
#        192543
#        211142
#        232241
#        252769
#        272150
#        288473
#
# Disc length: 4123 seconds
#
# Revision: 0
# Processed by: cddbd v1.5.2PL0 Copyright (c) Steve Scherf et al.
# Submitted via: ExactAudioCopy v0.99pb5
#
DISCID=01101912
DTITLE=Various Artist - Blues Volume IX #2
DYEAR=2008
DGENRE=Blues
TTITLE0=Clarence Carter - Before We Get Sleepy
TTITLE1=Glenn Patrik - 4 P.M. Blues
TTITLE2=Johnny Mastro And Mamas Boys - Love Train #2
TTITLE3=Travelin' Hellhound - They're Red Hot
TTITLE4=Kurt Crandall - Speak Up
TTITLE5=Alden Bigelow - Play with fire
TTITLE6=The Paul Speidel Band - Cranky!
TTITLE7=Bad Influence - She What
TTITLE8=Vernon Ray Harrington - You Did Me Wrong
TTITLE9=John Sosebee - Waitin'
TTITLE10=The Blues Gangsters - Tigershark Blues
TTITLE11=Hard Travelin' With Danny Cowan - Don't Cut Your Hair
TTITLE12=Lance Brown - Broken Down Poet
TTITLE13=Barry McCabe - Adam and Eve
TTITLE14=Slim Fatz - Times Like This
TTITLE15=Toby Walker - Swing Bean
TTITLE16=Mark Horning - Path of Sorrows
TTITLE17=Fletch Deezie - What's Up with You
EXTD=
EXTT0=
EXTT1=
EXTT2=
EXTT3=
EXTT4=
EXTT5=
EXTT6=
EXTT7=
EXTT8=
EXTT9=
EXTT10=
EXTT11=
EXTT12=
EXTT13=
EXTT14=
EXTT15=
EXTT16=
EXTT17=
PLAYORDER=
